<svg xmlns="http://www.w3.org/2000/svg" width="25" height="25" viewBox="0 0 25 25" fill="none">
<path d="M21.7714 20.5221C20.3436 18.0536 18.1433 16.2836 15.5755 15.4446C16.8457 14.6884 17.8325 13.5363 18.3845 12.165C18.9364 10.7937 19.023 9.27921 18.6309 7.85398C18.2388 6.42875 17.3896 5.17164 16.2139 4.2757C15.0382 3.37976 13.6009 2.89453 12.1227 2.89453C10.6445 2.89453 9.20719 3.37976 8.03146 4.2757C6.85574 5.17164 6.00662 6.42875 5.61451 7.85398C5.2224 9.27921 5.30897 10.7937 5.86093 12.165C6.41289 13.5363 7.39972 14.6884 8.66988 15.4446C6.10207 16.2827 3.90175 18.0527 2.47394 20.5221C2.42158 20.6075 2.38685 20.7025 2.3718 20.8015C2.35675 20.9005 2.36168 21.0015 2.38631 21.0986C2.41093 21.1957 2.45475 21.2868 2.51518 21.3667C2.57561 21.4466 2.65143 21.5135 2.73815 21.5636C2.82488 21.6137 2.92076 21.6459 3.02014 21.6584C3.11951 21.6708 3.22038 21.6632 3.31677 21.636C3.41317 21.6089 3.50315 21.5627 3.5814 21.5002C3.65965 21.4376 3.72458 21.3601 3.77238 21.2721C5.53863 18.2196 8.6605 16.3971 12.1227 16.3971C15.5849 16.3971 18.7068 18.2196 20.473 21.2721C20.5208 21.3601 20.5857 21.4376 20.664 21.5002C20.7422 21.5627 20.8322 21.6089 20.9286 21.636C21.025 21.6632 21.1259 21.6708 21.2252 21.6584C21.3246 21.6459 21.4205 21.6137 21.5072 21.5636C21.594 21.5135 21.6698 21.4466 21.7302 21.3667C21.7906 21.2868 21.8344 21.1957 21.8591 21.0986C21.8837 21.0015 21.8886 20.9005 21.8736 20.8015C21.8585 20.7025 21.8238 20.6075 21.7714 20.5221ZM6.87269 9.64708C6.87269 8.60873 7.1806 7.5937 7.75747 6.73034C8.33435 5.86698 9.15429 5.19407 10.1136 4.79671C11.0729 4.39935 12.1285 4.29539 13.1469 4.49796C14.1653 4.70053 15.1008 5.20055 15.835 5.93477C16.5692 6.669 17.0692 7.60446 17.2718 8.62286C17.4744 9.64126 17.3704 10.6969 16.9731 11.6562C16.5757 12.6155 15.9028 13.4354 15.0394 14.0123C14.1761 14.5892 13.161 14.8971 12.1227 14.8971C10.7308 14.8956 9.39627 14.342 8.41202 13.3577C7.42778 12.3735 6.87418 11.039 6.87269 9.64708Z" fill="black"/>
</svg>