<svg xmlns="http://www.w3.org/2000/svg" width="25" height="25" viewBox="0 0 25 25" fill="none">
<path d="M22.6612 18.9351L21.3243 7.68508C21.281 7.31853 21.104 6.98084 20.8272 6.73662C20.5505 6.49239 20.1934 6.35877 19.8243 6.36133H16.6715C16.6715 5.16785 16.1974 4.02326 15.3535 3.17935C14.5096 2.33543 13.365 1.86133 12.1715 1.86133C10.978 1.86133 9.83345 2.33543 8.98953 3.17935C8.14562 4.02326 7.67151 5.16785 7.67151 6.36133H4.51495C4.14586 6.35877 3.78878 6.49239 3.51204 6.73662C3.23529 6.98084 3.05831 7.31853 3.01495 7.68508L1.67808 18.9351C1.65358 19.145 1.67374 19.3578 1.73723 19.5595C1.80073 19.7611 1.90612 19.947 2.04651 20.1051C2.18792 20.2638 2.3612 20.3909 2.55504 20.4781C2.74889 20.5654 2.95895 20.6108 3.17151 20.6113H21.164C21.3778 20.6118 21.5893 20.5669 21.7846 20.4797C21.9798 20.3924 22.1543 20.2647 22.2965 20.1051C22.4362 19.9467 22.541 19.7606 22.6038 19.559C22.6666 19.3574 22.6862 19.1448 22.6612 18.9351ZM12.1715 3.36133C12.9672 3.36133 13.7302 3.6774 14.2928 4.24001C14.8554 4.80262 15.1715 5.56568 15.1715 6.36133H9.17151C9.17151 5.56568 9.48758 4.80262 10.0502 4.24001C10.6128 3.6774 11.3759 3.36133 12.1715 3.36133ZM3.17151 19.1113L4.51495 7.86133H7.67151V10.1113C7.67151 10.3102 7.75053 10.501 7.89118 10.6417C8.03184 10.7823 8.2226 10.8613 8.42151 10.8613C8.62043 10.8613 8.81119 10.7823 8.95184 10.6417C9.0925 10.501 9.17151 10.3102 9.17151 10.1113V7.86133H15.1715V10.1113C15.1715 10.3102 15.2505 10.501 15.3912 10.6417C15.5318 10.7823 15.7226 10.8613 15.9215 10.8613C16.1204 10.8613 16.3112 10.7823 16.4518 10.6417C16.5925 10.501 16.6715 10.3102 16.6715 10.1113V7.86133H19.8356L21.164 19.1113H3.17151Z" fill="black"/>
</svg>